<svg width="209" height="209" viewBox="0 0 209 209" fill="none" xmlns="http://www.w3.org/2000/svg">
<g clip-path="url(#clip0_5_13)">
<path d="M191.82 192.21L187.91 188.3L184.57 184.96L177.52 177.91C177.52 177.91 177.55 177.88 177.57 177.86L162.91 163.35C147.75 178.33 126.91 187.58 103.91 187.58C80.91 187.58 60.07 178.28 44.9 163.28L40.76 167.45L23.39 184.76L20.06 188.1L16.46 191.7L32.84 208.02L48.65 192.21C64.71 202.34 83.72 208.2 104.1 208.2C124.48 208.2 143.77 202.25 159.9 191.99L175.97 208.06L191.82 192.21Z" fill="black"/>
<path d="M115.44 60.69C134.44 65.73 148.44 83.14 148.44 103.83C148.44 128.47 128.59 148.45 104.09 148.45C79.59 148.45 59.74 128.47 59.74 103.83C59.74 83.03 73.88 65.56 93.01 60.61V38.71C61.66 43.98 37.78 71.25 37.78 104.09C37.78 140.71 67.47 170.39 104.08 170.39C140.69 170.39 170.38 140.7 170.38 104.09C170.38 71.36 146.67 44.18 115.49 38.76L115.42 60.67L115.44 60.69Z" fill="black"/>
<path d="M191.9 160.06C202.22 143.9 208.2 124.7 208.2 104.1C208.2 46.61 161.6 0 104.1 0C46.6 0 0 46.61 0 104.1C0 124.59 5.92 143.7 16.15 159.81L30.89 145.08C23.93 132.85 19.96 118.71 19.96 103.63C19.96 57.27 57.55 19.68 103.91 19.68C150.27 19.68 187.86 57.27 187.86 103.63C187.86 118.68 183.9 132.81 176.96 145.02L191.9 160.06Z" fill="black"/>
</g>
<defs>
<clipPath id="clip0_5_13">
<rect width="208.2" height="208.2" fill="white"/>
</clipPath>
</defs>
</svg>
